<?xml version="1.0" encoding="iso-8859-1"?>
<!-- Uploaded to: SVG Repo, www.svgrepo.com, Generator: SVG Repo Mixer Tools -->
<svg fill="#000000" height="800px" width="800px" version="1.1" id="Capa_1" xmlns="http://www.w3.org/2000/svg" xmlns:xlink="http://www.w3.org/1999/xlink" 
	 viewBox="0 0 208.666 208.666" xml:space="preserve">
<g>
	<path d="M54.715,24.957c-0.544,0.357-1.162,0.598-1.806,0.696l-28.871,4.403c-2.228,0.341-3.956,2.257-3.956,4.511v79.825
		c0,1.204,33.353,20.624,43.171,30.142c12.427,12.053,21.31,34.681,33.983,54.373c4.405,6.845,10.201,9.759,15.584,9.759
		c10.103,0,18.831-10.273,14.493-24.104c-4.018-12.804-8.195-24.237-13.934-34.529c-4.672-8.376,1.399-18.7,10.989-18.7h48.991
		c18.852,0,18.321-26.312,8.552-34.01c-1.676-1.32-2.182-3.682-1.175-5.563c3.519-6.572,2.86-20.571-6.054-25.363
		c-2.15-1.156-3.165-3.74-2.108-5.941c3.784-7.878,3.233-24.126-8.71-27.307c-2.242-0.598-3.699-2.703-3.405-5.006
		c0.909-7.13-0.509-20.86-22.856-26.447C133.112,0.573,128.281,0,123.136,0C104.047,0.001,80.683,7.903,54.715,24.957z"/>
</g>
</svg>